# xmcd
#
# Track frame offsets:
#	150
#	20604
#	36006
#	52750
#	72075
#	94376
#	112140
#	125822
#	142054
#	157909
#	173246
#	190469
#	210066
#	226223
#
# Disc length: 3424 seconds
#
# Revision: 0
# Processed by: cddbd v1.5.2PL0 Copyright (c) Steve Scherf et al.
# Submitted via: EasyCDDAExtractor 11.0.3.1
#
DISCID=c00d5e0e
DTITLE=Michael Night - I Sing Country Too
DYEAR=2007
DGENRE=Country
TTITLE0=44 Miles To Mexico
TTITLE1=Waiting With A Ring
TTITLE2=I Can't Live Without You
TTITLE3=Lose Ol' Frank
TTITLE4=The Letter
TTITLE5=I Sing Country Too
TTITLE6=All I Ever Wanted
TTITLE7=Those Towers Aren't There Anymore
TTITLE8=Cowboy Days And New York Nights
TTITLE9=Don't Want A Man With A Pickup Truck
TTITLE10=As Long As
TTITLE11=There's Only One Star
TTITLE12=Let's Take This Ride Tonight
TTITLE13=How You Gonna Give?
EXTD=
EXTT0=
EXTT1=
EXTT2=
EXTT3=
EXTT4=
EXTT5=
EXTT6=
EXTT7=
EXTT8=
EXTT9=
EXTT10=
EXTT11=
EXTT12=
EXTT13=
PLAYORDER=
